<svg width="102" height="91" viewBox="0 0 102 91" fill="none" xmlns="http://www.w3.org/2000/svg">
<path d="M40.7209 59.1047L0 90.1395L29.0581 51.593V45.6628V36.3721L57.1279 20.5581V17.1977L45.4651 12.4535L29.0581 15.814L47.2442 7.90698L67.2093 12.4535L77.6861 20.5581V27.4767L82.8256 36.3721H87.1744L102 29.4535L87.1744 44.2791H77.6861L67.2093 27.4767L49.814 40.5663L47.2442 42.5L59.5 55.9419C59.5 55.9419 60.8367 61.1776 59.5 64.0465C58.848 65.446 57.1279 67.2093 57.1279 67.2093L32.2209 79.6628L45.4651 64.0465C45.4651 64.0465 46.8573 60.4412 45.4651 59.1047C44.1286 57.8216 40.7209 59.1047 40.7209 59.1047Z" fill="#F5AA41"/>
<circle cx="77.4884" cy="9.88372" r="9.88372" fill="#F5AA41"/>
</svg>
